<svg class="diagram-root" style="background: #f5f6f6" xmlns="http://www.w3.org/2000/svg" xmlns:xlink="http://www.w3.org/1999/xlink"><style>.diagram-root { font-family: "Helvetica Neue", sans-serif; font-size: 12px; } .t { overflow: visible; } .t-bg { y: 40; fill: #fff;   } .th { fill: #005aa0;   } .tht { fill: #fff; font-size: 14px;  } .tf { fill: #323c46; overflow: visible; } .tf.pk { fill: #005aa0; font-weight: bold; } .tf.fk { font-weight: bold; } .ty { fill: #adb1b5; font-weight: normal; text-anchor: end; } .r { fill: transparent; stroke: #c3c3c3; stroke-width: 1; } .l { stroke: 1; } .i { fill: #c2c7ce; stroke: #c2c7ce; } .i.ix { fill: #afb3b6; stroke: #000; } .fa { fill: transparent; overflow: visible; } .fa .bg.hover { fill: #f7f7f7; } .c { cy: 12; r: 4; stroke: #d2d2dc; fill: #d2d2dc; } .hr { fill: transparent; stroke: #323c46; stroke-opacity: 0.035; stroke-width: 13; } .dc { stroke: #fa5a3c; fill: #fa5a3c; } .x { stroke: white; stroke-width: 1; } .hl .th { fill: #1b9bff; } .hl .tht {  } .fhl .bg { fill: #e7f4ff; } .fhls .bg {  } .r.hl { stroke: #1b9bff; } .dim { opacity: 0.25; }</style><g class="drawing-wrapper" transform="translate(2, 18) scale(1,1)"><g class="rs"><path d="M 509.05 125 m -1, 0 a 1,1 0 1,0 2,0 a 1,1 0 1,0 -2,0 M 509.05 125 m -0.5, 0 a 0.5,0.5 0 1,0 1,0 a 0.5,0.5 0 1,0 -1,0  M509.05 125 L509.05 125 521.05 125 M515.05 131 L515.05 131 515.05 119 M521.05 125 C 571.05 125, 587.04 326, 494.4 326 M 482.4 326 m -1, 0 a 1,1 0 1,0 2,0 a 1,1 0 1,0 -2,0 M 482.4 326 m -0.5, 0 a 0.5,0.5 0 1,0 1,0 a 0.5,0.5 0 1,0 -1,0  M482.4 326 L482.4 326 494.4 326 M488.4 332 L488.4 332 488.4 320" id="h221257298" class="r"></path><path d="M 299 351 m -1, 0 a 1,1 0 1,0 2,0 a 1,1 0 1,0 -2,0 M 299 351 m -0.5, 0 a 0.5,0.5 0 1,0 1,0 a 0.5,0.5 0 1,0 -1,0  M299 351 L299 351 287 351 M293 357 L293 357 293 345 M287 351 Q 271.68 351, 256.36 275.5 T 225.71 200 M 213.71 200 m -1, 0 a 1,1 0 1,0 2,0 a 1,1 0 1,0 -2,0 M 213.71 200 m -0.5, 0 a 0.5,0.5 0 1,0 1,0 a 0.5,0.5 0 1,0 -1,0  M213.71 200 L213.71 200 225.71 200 M 213.71 206 m -1, 0 a 1,1 0 1,0 2,0 a 1,1 0 1,0 -2,0 M 213.71 206 m -0.5, 0 a 0.5,0.5 0 1,0 1,0 a 0.5,0.5 0 1,0 -1,0  M213.71 206 L213.71 206 220.71 200 213.71 194 M 213.71 194 m -1, 0 a 1,1 0 1,0 2,0 a 1,1 0 1,0 -2,0 M 213.71 194 m -0.5, 0 a 0.5,0.5 0 1,0 1,0 a 0.5,0.5 0 1,0 -1,0 " id="h133153459" class="r"></path><path d="M 660 376 m -1, 0 a 1,1 0 1,0 2,0 a 1,1 0 1,0 -2,0 M 660 376 m -0.5, 0 a 0.5,0.5 0 1,0 1,0 a 0.5,0.5 0 1,0 -1,0  M660 376 L660 376 648 376 M654 382 L654 382 654 370 M648 376 Q 609.6 376, 571.2 351 T 494.4 326 M 482.4 326 m -1, 0 a 1,1 0 1,0 2,0 a 1,1 0 1,0 -2,0 M 482.4 326 m -0.5, 0 a 0.5,0.5 0 1,0 1,0 a 0.5,0.5 0 1,0 -1,0  M482.4 326 L482.4 326 494.4 326 M 482.4 332 m -1, 0 a 1,1 0 1,0 2,0 a 1,1 0 1,0 -2,0 M 482.4 332 m -0.5, 0 a 0.5,0.5 0 1,0 1,0 a 0.5,0.5 0 1,0 -1,0  M482.4 332 L482.4 332 489.4 326 482.4 320 M 482.4 320 m -1, 0 a 1,1 0 1,0 2,0 a 1,1 0 1,0 -2,0 M 482.4 320 m -0.5, 0 a 0.5,0.5 0 1,0 1,0 a 0.5,0.5 0 1,0 -1,0 " id="h1277105345" class="r"></path><path d="M 660 401 m -1, 0 a 1,1 0 1,0 2,0 a 1,1 0 1,0 -2,0 M 660 401 m -0.5, 0 a 0.5,0.5 0 1,0 1,0 a 0.5,0.5 0 1,0 -1,0  M660 401 L660 401 648 401 M 660 407 m -1, 0 a 1,1 0 1,0 2,0 a 1,1 0 1,0 -2,0 M 660 407 m -0.5, 0 a 0.5,0.5 0 1,0 1,0 a 0.5,0.5 0 1,0 -1,0  M660 407 L660 407 653 401 660 395 M 660 395 m -1, 0 a 1,1 0 1,0 2,0 a 1,1 0 1,0 -2,0 M 660 395 m -0.5, 0 a 0.5,0.5 0 1,0 1,0 a 0.5,0.5 0 1,0 -1,0  M648 401 C 598 401, 522.4 82, 774 82 M 786 82 m -1, 0 a 1,1 0 1,0 2,0 a 1,1 0 1,0 -2,0 M 786 82 m -0.5, 0 a 0.5,0.5 0 1,0 1,0 a 0.5,0.5 0 1,0 -1,0  M786 82 L786 82 774 82 M780 88 L780 88 780 76" id="h959966205" class="r"></path><path d="M 207.4 87 m -1, 0 a 1,1 0 1,0 2,0 a 1,1 0 1,0 -2,0 M 207.4 87 m -0.5, 0 a 0.5,0.5 0 1,0 1,0 a 0.5,0.5 0 1,0 -1,0  M207.4 87 L207.4 87 219.4 87 M 207.4 93 m -1, 0 a 1,1 0 1,0 2,0 a 1,1 0 1,0 -2,0 M 207.4 93 m -0.5, 0 a 0.5,0.5 0 1,0 1,0 a 0.5,0.5 0 1,0 -1,0  M207.4 93 L207.4 93 214.4 87 207.4 81 M 207.4 81 m -1, 0 a 1,1 0 1,0 2,0 a 1,1 0 1,0 -2,0 M 207.4 81 m -0.5, 0 a 0.5,0.5 0 1,0 1,0 a 0.5,0.5 0 1,0 -1,0  M219.4 87 Q 358.05 87, 496.7 84.5 T 774 82 M 786 82 m -1, 0 a 1,1 0 1,0 2,0 a 1,1 0 1,0 -2,0 M 786 82 m -0.5, 0 a 0.5,0.5 0 1,0 1,0 a 0.5,0.5 0 1,0 -1,0  M786 82 L786 82 774 82 M780 88 L780 88 780 76" id="h221204746" class="r"></path><path d="M 207.4 112 m -1, 0 a 1,1 0 1,0 2,0 a 1,1 0 1,0 -2,0 M 207.4 112 m -0.5, 0 a 0.5,0.5 0 1,0 1,0 a 0.5,0.5 0 1,0 -1,0  M207.4 112 L207.4 112 219.4 112 M213.4 118 L213.4 118 213.4 106 M219.4 112 Q 236.3 112, 253.2 219 T 287 326 M 299 326 m -1, 0 a 1,1 0 1,0 2,0 a 1,1 0 1,0 -2,0 M 299 326 m -0.5, 0 a 0.5,0.5 0 1,0 1,0 a 0.5,0.5 0 1,0 -1,0  M299 326 L299 326 287 326 M 299 332 m -1, 0 a 1,1 0 1,0 2,0 a 1,1 0 1,0 -2,0 M 299 332 m -0.5, 0 a 0.5,0.5 0 1,0 1,0 a 0.5,0.5 0 1,0 -1,0  M299 332 L299 332 292 326 299 320 M 299 320 m -1, 0 a 1,1 0 1,0 2,0 a 1,1 0 1,0 -2,0 M 299 320 m -0.5, 0 a 0.5,0.5 0 1,0 1,0 a 0.5,0.5 0 1,0 -1,0 " id="h1130742295" class="r"></path></g><g class="hrs"></g><g class="ts"><svg width="138.05" height="100" x="371" y="68" id="h3858243705" class="t"><rect height="40" width="138.05" class="th"></rect><text x="13" y="25" class="tht">Salaries</text><rect height="60" width="138.05" class="t-bg"></rect><text x="13" y="61" class="tf pk">emp_no<tspan x="125.05000000000001" class="ty">bigint</tspan></text><path d="M7,14A2,2 0 0,1 5,12A2,2 0 0,1 7,10A2,2 0 0,1 9,12A2,2 0 0,1 7,14M12.65,10C11.83,7.67 9.61,6 7, 6A6, 6 0 0, 0 1, 12A6, 6 0 0, 0 7, 18C9.61, 18 11.83, 16.33 12.65, 14H17V18H21V14H23V10H12.65Z" class="i pk" transform="translate(76.36250000000001, 48) scale(0.65)"></path><text x="13" y="86" class="tf">salary<tspan x="125.05000000000001" class="ty">bigint?</tspan></text></svg><svg width="187.42" height="100" x="786" y="25" id="h3708248841" class="t"><rect height="40" width="187.42" class="th"></rect><text x="13" y="25" class="tht">Departments</text><rect height="60" width="187.42" class="t-bg"></rect><text x="13" y="61" class="tf pk">dept<tspan x="174.42" class="ty">varchar(255)</tspan></text><path d="M7,14A2,2 0 0,1 5,12A2,2 0 0,1 7,10A2,2 0 0,1 9,12A2,2 0 0,1 7,14M12.65,10C11.83,7.67 9.61,6 7, 6A6, 6 0 0, 0 1, 12A6, 6 0 0, 0 7, 18C9.61, 18 11.83, 16.33 12.65, 14H17V18H21V14H23V10H12.65Z" class="i pk" transform="translate(86.39265624999999, 48) scale(0.65)"></path><text x="13" y="86" class="tf">dept_name<tspan x="174.42" class="ty">varchar(255)?</tspan></text></svg><svg width="177.4" height="100" x="660" y="319" id="h3353995054" class="t"><rect height="40" width="177.4" class="th"></rect><text x="13" y="25" class="tht">Dept_Emp</text><rect height="60" width="177.4" class="t-bg"></rect><text x="13" y="61" class="tf pk">emp_no<tspan x="164.4" class="ty">bigint</tspan></text><path d="M7,14A2,2 0 0,1 5,12A2,2 0 0,1 7,10A2,2 0 0,1 9,12A2,2 0 0,1 7,14M12.65,10C11.83,7.67 9.61,6 7, 6A6, 6 0 0, 0 1, 12A6, 6 0 0, 0 7, 18C9.61, 18 11.83, 16.33 12.65, 14H17V18H21V14H23V10H12.65Z" class="i pk" transform="translate(115.7125, 48) scale(0.65)"></path><text x="13" y="86" class="tf pk">dept_no<tspan x="164.4" class="ty">varchar(255)</tspan></text><path d="M7,14A2,2 0 0,1 5,12A2,2 0 0,1 7,10A2,2 0 0,1 9,12A2,2 0 0,1 7,14M12.65,10C11.83,7.67 9.61,6 7, 6A6, 6 0 0, 0 1, 12A6, 6 0 0, 0 7, 18C9.61, 18 11.83, 16.33 12.65, 14H17V18H21V14H23V10H12.65Z" class="i pk" transform="translate(76.37265625, 73) scale(0.65)"></path></svg><svg width="177.4" height="100" x="30" y="30" id="h754932316" class="t"><rect height="40" width="177.4" class="th"></rect><text x="13" y="25" class="tht">Dept_Manager</text><rect height="60" width="177.4" class="t-bg"></rect><text x="13" y="61" class="tf pk">dept_no<tspan x="164.4" class="ty">varchar(255)</tspan></text><path d="M7,14A2,2 0 0,1 5,12A2,2 0 0,1 7,10A2,2 0 0,1 9,12A2,2 0 0,1 7,14M12.65,10C11.83,7.67 9.61,6 7, 6A6, 6 0 0, 0 1, 12A6, 6 0 0, 0 7, 18C9.61, 18 11.83, 16.33 12.65, 14H17V18H21V14H23V10H12.65Z" class="i pk" transform="translate(76.37265625, 48) scale(0.65)"></path><text x="13" y="86" class="tf pk">emp_no<tspan x="164.4" class="ty">bigint</tspan></text><path d="M7,14A2,2 0 0,1 5,12A2,2 0 0,1 7,10A2,2 0 0,1 9,12A2,2 0 0,1 7,14M12.65,10C11.83,7.67 9.61,6 7, 6A6, 6 0 0, 0 1, 12A6, 6 0 0, 0 7, 18C9.61, 18 11.83, 16.33 12.65, 14H17V18H21V14H23V10H12.65Z" class="i pk" transform="translate(115.7125, 73) scale(0.65)"></path></svg><svg width="183.4" height="225" x="299" y="269" id="h3299212598" class="t"><rect height="40" width="183.4" class="th"></rect><text x="13" y="25" class="tht">Employees</text><rect height="185" width="183.4" class="t-bg"></rect><text x="13" y="61" class="tf pk">emp_no<tspan x="170.4" class="ty">bigserial</tspan></text><path d="M7,14A2,2 0 0,1 5,12A2,2 0 0,1 7,10A2,2 0 0,1 9,12A2,2 0 0,1 7,14M12.65,10C11.83,7.67 9.61,6 7, 6A6, 6 0 0, 0 1, 12A6, 6 0 0, 0 7, 18C9.61, 18 11.83, 16.33 12.65, 14H17V18H21V14H23V10H12.65Z" class="i pk" transform="translate(105.710546875, 48) scale(0.65)"></path><text x="13" y="86" class="tf fk">emp_title_id<tspan x="170.4" class="ty">varchar(255)</tspan></text><text x="13" y="111" class="tf">birth_date<tspan x="170.4" class="ty">datetime?</tspan></text><text x="13" y="136" class="tf">first_name<tspan x="170.4" class="ty">varchar(255)?</tspan></text><text x="13" y="161" class="tf">last_name<tspan x="170.4" class="ty">varchar(255)?</tspan></text><text x="13" y="186" class="tf">sex<tspan x="170.4" class="ty">varchar(255)?</tspan></text><text x="13" y="211" class="tf">hire_date<tspan x="170.4" class="ty">datetime?</tspan></text></svg><svg width="168.71" height="100" x="45" y="143" id="h3517680912" class="t"><rect height="40" width="168.71" class="th"></rect><text x="13" y="25" class="tht">Titles</text><rect height="60" width="168.71" class="t-bg"></rect><text x="13" y="61" class="tf pk">title_id<tspan x="155.71" class="ty">varchar(255)</tspan></text><path d="M7,14A2,2 0 0,1 5,12A2,2 0 0,1 7,10A2,2 0 0,1 9,12A2,2 0 0,1 7,14M12.65,10C11.83,7.67 9.61,6 7, 6A6, 6 0 0, 0 1, 12A6, 6 0 0, 0 7, 18C9.61, 18 11.83, 16.33 12.65, 14H17V18H21V14H23V10H12.65Z" class="i pk" transform="translate(67.68265625000001, 48) scale(0.65)"></path><text x="13" y="86" class="tf">title<tspan x="155.71" class="ty">varchar(255)?</tspan></text></svg></g></g><text class="qdbd-link" x="10" y="20">www.quickdatabasediagrams.com</text></svg>